<svg xmlns="http://www.w3.org/2000/svg" width="96.056" height="77.059" viewBox="0 0 96.056 77.059">
  <g id="Salad" transform="translate(48.028 38.53)">
    <g id="Group_5034" data-name="Group 5034" transform="translate(-46.15 -36.652)">
      <g id="Group_5033" data-name="Group 5033">
        <path id="Path_14820" data-name="Path 14820" d="M28.168,84.117a13,13,0,0,1-4.11-5.66C17.085,72.492,7.5,77.02,7.5,77.02c1.469,5.719,3.945,9.108,6.724,11.041h15.37A26.368,26.368,0,0,0,28.168,84.117Z" transform="translate(-7.5 -58.382)" fill="none" stroke="#29353a" stroke-linecap="round" stroke-linejoin="round" stroke-width="3.755"/>
        <path id="Path_14821" data-name="Path 14821" d="M136.107,27.041a7.981,7.981,0,0,1,7.756-6.059,8.165,8.165,0,0,1,1.2.091,20.841,20.841,0,0,1,2.614-8.1C145.69,9.615,142.809,7.5,139.6,7.5c-6,0-10.87,7.41-10.87,16.551a18.082,18.082,0,0,0,1.071,6.513A8.54,8.54,0,0,1,136.107,27.041Z" transform="translate(-98.383 -7.5)" fill="none" stroke="#29353a" stroke-linecap="round" stroke-linejoin="round" stroke-width="3.755"/>
        <path id="Path_14822" data-name="Path 14822" d="M57.289,126.049H33.968s3.524,26.027,28.271,33.6V159.6H91.372v.051c24.747-7.573,28.271-33.6,28.271-33.6H57.289Z" transform="translate(-27.342 -96.371)" fill="none" stroke="#29353a" stroke-linecap="round" stroke-linejoin="round" stroke-width="3.755"/>
        <path id="Path_14823" data-name="Path 14823" d="M146.9,260.065v10.077h29.133V260.065Z" transform="translate(-112.001 -196.837)" fill="none" stroke="#29353a" stroke-linecap="round" stroke-linejoin="round" stroke-width="3.755"/>
        <path id="Path_14824" data-name="Path 14824" d="M194.464,21.16a7.938,7.938,0,0,1,6.171,5.871,8.234,8.234,0,0,1,7.781,8.111,8.229,8.229,0,0,1,6.911-7.987,21.977,21.977,0,0,0,.21-3.1c0-9.141-4.867-16.551-10.87-16.551-3.206,0-6.088,2.115-8.077,5.476a20.841,20.841,0,0,0-2.614,8.1C194.139,21.1,194.3,21.126,194.464,21.16Z" transform="translate(-147.293 -7.5)" fill="none" stroke="#29353a" stroke-linecap="round" stroke-linejoin="round" stroke-width="3.755"/>
        <path id="Path_14825" data-name="Path 14825" d="M275.057,67.4a7.938,7.938,0,0,0-6.171-5.871,8.218,8.218,0,0,0-1.691-.177,7.981,7.981,0,0,0-7.756,6.059c-.294.023-.583.062-.867.113a8.229,8.229,0,0,0-6.911,7.987v2.037h31.177V75.515A8.234,8.234,0,0,0,275.057,67.4Z" transform="translate(-190.537 -47.874)" fill="none" stroke="#29353a" stroke-linecap="round" stroke-linejoin="round" stroke-width="3.755"/>
        <path id="Path_14826" data-name="Path 14826" d="M158.3,77.551V75.515a8.234,8.234,0,0,0-7.781-8.111,7.938,7.938,0,0,0-6.171-5.871c-.162-.034-.325-.062-.488-.086a8.166,8.166,0,0,0-1.2-.091,7.981,7.981,0,0,0-7.756,6.059,8.54,8.54,0,0,0-6.3,3.523,7.861,7.861,0,0,0-1.474,4.577v2.037Z" transform="translate(-97.177 -47.874)" fill="none" stroke="#29353a" stroke-linecap="round" stroke-linejoin="round" stroke-width="3.755"/>
        <path id="Path_14827" data-name="Path 14827" d="M75.323,55.093A19.936,19.936,0,0,0,83.7,58.922C90.741,39.71,71.983,36.658,71.983,36.658c-2,5.466-1.917,9.623-.769,12.775A13,13,0,0,0,75.323,55.093Z" transform="translate(-54.655 -29.359)" fill="none" stroke="#29353a" stroke-linecap="round" stroke-linejoin="round" stroke-width="3.755"/>
      </g>
      <line id="Line_325" data-name="Line 325" x2="5.858" y2="11.132" transform="translate(23.186 18.431)" fill="none" stroke="#29353a" stroke-linecap="round" stroke-linejoin="round" stroke-width="3.755"/>
      <line id="Line_326" data-name="Line 326" x2="10.287" y2="5.14" transform="translate(11.807 24.537)" fill="none" stroke="#29353a" stroke-linecap="round" stroke-linejoin="round" stroke-width="3.755"/>
      <line id="Line_327" data-name="Line 327" x2="79.838" transform="translate(9.52 39.49)" fill="none" stroke="#29353a" stroke-linecap="round" stroke-linejoin="round" stroke-width="3.755"/>
    </g>
  </g>
</svg>
