<svg xmlns="http://www.w3.org/2000/svg" width="98.161" height="70.716" viewBox="0 0 98.161 70.716">
  <g id="plate-icon" transform="translate(0 0)">
    <path id="Subtraction_2" d="M1498.017,489.583a3.3,3.3,0,0,1-3.3-3.3h0v-20.85a4.417,4.417,0,0,1-2.085-3.475V449.274a33.592,33.592,0,0,1,.174-5.907,10.488,10.488,0,0,1,2.78-5.734,9.913,9.913,0,0,1,6.081-2.432h.7a1.475,1.475,0,0,1,1.39,1.216v25.541a4.609,4.609,0,0,1-2.085,3.475v20.85a3.891,3.891,0,0,1-3.649,3.3Zm2.954-51.6h0a5.86,5.86,0,0,0-3.475,1.564c-2.433,2.432-2.433,6.776-2.433,9.556v12.684c0,.7.869,1.39,1.911,1.737v22.587a1.042,1.042,0,1,0,2.085,0V463.521c1.216-.347,1.911-1.042,1.911-1.737v-23.8Z" transform="translate(-1405.59 -427.902)" fill="#29353a"/>
    <g id="Group_444" transform="translate(0 6.825)">
      <g id="Group_414" transform="translate(0)">
        <path id="Path_1069" d="M6.958,21.024a8.071,8.071,0,0,1-4-1.042A6.151,6.151,0,0,1,.008,14.074L.877,1.39A1.343,1.343,0,0,1,2.093,0h0A1.149,1.149,0,0,1,3.309,1.042V1.39h0L2.788,14.074a3.408,3.408,0,0,0,1.564,3.475,4.735,4.735,0,0,0,5.212,0A3.529,3.529,0,0,0,11.3,14.074L10.433,1.39A1.5,1.5,0,0,1,11.823,0a1.669,1.669,0,0,1,1.564,1.216V1.39l.869,12.684A6.151,6.151,0,0,1,11.3,19.981,9.962,9.962,0,0,1,6.958,21.024Z" transform="translate(0.011)" fill="#29353a"/>
      </g>
      <g id="Group_415" transform="translate(5.662 0.002)">
        <path id="Path_1070" d="M1.39,54.9A1.474,1.474,0,0,1,0,53.688H0V1.39A1.37,1.37,0,0,1,1.39,0h0A1.886,1.886,0,0,1,2.78,1.39v52.3A1.474,1.474,0,0,1,1.39,54.9Z" fill="#29353a"/>
      </g>
    </g>
    <path id="Path_1089" d="M1485.971,501.716a35.358,35.358,0,1,1,35.445-35.445A35.822,35.822,0,0,1,1485.971,501.716Zm0-67.415a32.144,32.144,0,1,0,32.143,32.144h0A32.294,32.294,0,0,0,1485.971,434.3Z" transform="translate(-1436.461 -431)" fill="#29353a"/>
    <g id="Group_453" transform="translate(25.129 9.556)">
      <g id="Group_448" transform="translate(0.17 0.027)">
        <g id="Group_447" transform="translate(0 0)">
          <path id="Path_1090" d="M1.564,41.179a1.772,1.772,0,0,1-1.39-.869,1.841,1.841,0,0,1,.521-2.259L21.719,25.889V1.564A1.714,1.714,0,0,1,23.456,0h.174a1.557,1.557,0,0,1,1.564,1.564V27.8L2.432,41A1.566,1.566,0,0,1,1.564,41.179Z" transform="translate(0 0)" fill="#29353a"/>
        </g>
      </g>
      <g id="Group_450" transform="translate(0 25.017)">
        <g id="Group_449">
          <path id="Path_1091" d="M1.748,16.332a1.772,1.772,0,0,1-1.39-.869A1.637,1.637,0,0,1,.531,13.2l.174-.174L23.466,0,46.227,13.2a1.87,1.87,0,0,1,.521,2.432,1.87,1.87,0,0,1-2.432.521L23.466,3.649,2.443,15.811C2.1,16.159,1.921,16.332,1.748,16.332Z" transform="translate(0.014)" fill="#29353a"/>
        </g>
      </g>
      <g id="Group_452" transform="translate(21.837 0)">
        <g id="Group_451">
          <path id="Path_1092" d="M23.456,41.19a1.566,1.566,0,0,1-.869-.174L0,27.811V1.575A1.725,1.725,0,0,1,1.911.011C2.78.185,3.475.706,3.475,1.575V25.9L24.5,38.062a1.87,1.87,0,0,1,.521,2.432,2.2,2.2,0,0,1-1.564.695Z" transform="translate(0 0.015)" fill="#29353a"/>
        </g>
      </g>
    </g>
    <path id="Path_1094" d="M1496.244,466.167a1.557,1.557,0,0,1-1.564-1.564v-.174a29.059,29.059,0,0,0-18.591-26.41,1.807,1.807,0,0,1-1.042-2.259v-.174a2.553,2.553,0,0,1,2.432-.869h0a33.031,33.031,0,0,1,20.85,29.537,1.642,1.642,0,0,1-1.737,1.737h0C1496.417,466.515,1496.417,466.515,1496.244,466.167Z" transform="translate(-1418.586 -428.29)" fill="#29353a"/>
    <path id="Path_1095" d="M1476.581,470.483a33.869,33.869,0,0,1-11.12-1.737,1.648,1.648,0,0,1,1.042-3.128,27.9,27.9,0,0,0,16.854.521,1.707,1.707,0,0,1,.869,3.3h0A27.1,27.1,0,0,1,1476.581,470.483Z" transform="translate(-1426.375 -405.501)" fill="#29353a"/>
    <path id="Path_1096" d="M1455.264,460.636a1.557,1.557,0,0,1-1.564-1.564V458.9a31.339,31.339,0,0,1,6.255-17.722,1.648,1.648,0,0,1,2.259-.347l.174.174a1.848,1.848,0,0,1,.347,2.085A27.462,27.462,0,0,0,1457,458.9c-.174,1.042-.7,1.911-1.737,1.737Z" transform="translate(-1434.248 -423.975)" fill="#29353a"/>
  </g>
</svg>
